<?xml version="1.0" encoding="utf-8"?>
<!-- Generator: Adobe Illustrator 15.1.0, SVG Export Plug-In . SVG Version: 6.00 Build 0)  -->
<!DOCTYPE svg PUBLIC "-//W3C//DTD SVG 1.1//EN" "http://www.w3.org/Graphics/SVG/1.1/DTD/svg11.dtd">
<svg version="1.1"
	 id="svg4862" sodipodi:docbase="" inkscape:version="0.46" inkscape:output_extension="org.inkscape.output.svg.inkscape" sodipodi:version="0.32" sodipodi:docname="H1N1_USA_Map.svg" sodipodi:modified="true" xmlns:rdf="http://www.w3.org/1999/02/22-rdf-syntax-ns#" xmlns:svg="http://www.w3.org/2000/svg" xmlns:inkscape="http://www.inkscape.org/namespaces/inkscape" xmlns:cc="http://creativecommons.org/ns#" xmlns:sodipodi="http://sodipodi.sourceforge.net/DTD/sodipodi-0.dtd" xmlns:dc="http://purl.org/dc/elements/1.1/"
	 xmlns="http://www.w3.org/2000/svg" xmlns:xlink="http://www.w3.org/1999/xlink" x="0px" y="0px" width="959px" height="593px"
	 viewBox="0 0 959 593" enable-background="new 0 0 959 593" xml:space="preserve">
<path id="Hawaii" fill="#FFFFFF" d="M178.498,396.028l1.474-2.702l1.719-0.245l0.246,0.614l-1.597,2.333H178.498z M186.235,393.203
	l4.667,1.965l1.597-0.244l1.228-2.948l-0.491-2.579l-3.193-0.368l-3.07,1.351L186.235,393.203z M209.569,400.817l2.825,4.176
	l1.842-0.246l0.86-0.368l1.105,0.982l2.825-0.123l0.736-1.104l-2.21-1.352l-1.474-2.824l-1.597-2.703l-4.421,2.211L209.569,400.817z
	 M224.919,407.572l0.982-1.474l3.562,0.737l0.492-0.368l4.667,0.491l-0.246,0.981l-1.965,1.105l-3.316-0.245L224.919,407.572z
	 M228.972,411.502l1.474,2.947l2.333-0.859l0.246-1.229l-1.229-1.597l-2.825-0.245V411.502z M234.253,410.642l1.72-2.21l3.561,1.843
	l3.315,0.859l3.316,2.088v1.473l-2.702,1.352l-3.685,0.736l-1.842-1.104L234.253,410.642z M246.902,422.432l1.228-0.982l2.58,1.228
	l5.772,2.702l2.58,1.597l1.228,1.842l1.474,3.316l3.07,1.965l-0.246,0.982l-2.947,2.456l-3.193,1.105l-1.105-0.491l-2.333,1.351
	l-1.842,2.455l-1.72,2.211l-1.351-0.123l-2.702-1.965l-0.246-3.438l0.491-1.843l-1.227-4.298l-1.597-1.351l-0.124-1.965l1.721-0.737
	l1.596-2.334l0.368-0.736l-1.228-1.351L246.902,422.432z"/>
<path id="Alaska" fill="#FFFFFF" d="M121.516,346.168l-0.246,64.843l1.229,0.736l2.333,0.123l1.105-0.859h1.964l0.124,2.21
	l5.281,5.157l0.368,1.966l2.579-1.473l0.491-0.124l0.245-2.333l1.105-1.228l0.86-0.122l1.474-1.105l2.333,1.597l0.492,2.21
	l1.474,0.859l0.859,1.843l2.947,1.351l2.579,4.544l2.088,2.947l1.719,2.088l1.105,2.824l3.808,1.352l3.929,1.596l0.737,3.316
	l0.368,2.332l-0.737,2.58l-1.351,1.72l-1.229-0.614l-1.105-2.334l-2.088-1.104l-1.351-0.86l-0.615,0.614l1.105,2.088l0.123,2.825
	l-0.859,0.367l-1.474-1.473l-1.597-0.981l0.368,1.227l0.982,1.352l-0.614,0.614c0,0-0.614-0.246-0.982-0.738
	c-0.368-0.49-1.597-2.578-1.597-2.578l-0.737-1.721c0,0-0.246,0.983-0.737,0.738c-0.491-0.245-0.982-1.105-0.982-1.105l1.351-1.474
	l-1.105-1.105v-3.807h-0.614l-0.615,2.579l-0.86,0.368l-0.737-2.825l-0.491-2.824l-0.615-0.368l0.246,4.298v0.86l-1.105-0.982
	l-2.702-4.545l-1.597-0.367l-0.492-2.825l-1.228-2.21l-1.229-0.859v-1.721l1.597-0.982l-0.369-0.245l-1.965,0.491l-2.579-1.842
	l-1.965-2.211l-3.684-1.965l-3.07-1.965l0.982-2.456v-1.229l-1.351,1.229l-2.21,0.859l-2.825-0.859l-4.298-1.843h-4.175
	l-0.491,0.369l-4.913-2.947l-1.597-0.246l-2.088-4.421l-2.701,0.245l-2.702,1.105l0.369,3.438l0.86-2.21l0.737,0.246l-1.105,3.315
	l2.456-2.088l0.491,1.228l-2.947,3.316l-0.982-0.245l-0.368-1.475l-0.982-0.613l-0.982,0.859l-2.087-1.352l-2.334,1.598
	l-1.351,1.597l-2.579,1.598l-3.561-0.123l-0.368-1.597l2.824-0.491v-0.982l-1.719-0.491l0.737-1.843l1.719-2.947v-1.35l0.123-0.614
	l3.316-1.72l0.737,0.982h2.088l-0.982-1.965l-2.825-0.245l-3.807,2.087l-1.843,2.58l-1.35,1.965l-0.859,1.719l-3.193,1.105
	l-2.334,1.965l-0.245,1.229l1.719,0.737l0.614,1.596l-2.088,2.456l-4.912,3.193l-5.895,3.193l-1.597,0.859l-4.053,0.859l-4.053,1.72
	l1.351,0.982l-1.105,1.105l-0.368,0.86l-2.088-0.738l-2.456,0.123l-0.614,1.72h-0.737l0.246-1.843l-2.702,0.982l-2.21,0.738
	l-2.579-0.983l-2.21,1.474h-2.456l-1.597,0.981l-1.229,0.615l-1.597-0.245l-1.964-0.86l-1.719,0.49l-0.736,0.738l-1.228-0.86v-1.474
	l2.333-0.981l4.79,0.49l3.316-1.228l1.597-1.597l2.21-0.491l1.351-0.614l2.088,0.123l1.228,0.982l0.737-0.246l1.719-2.087
	l2.333-0.737l2.579-0.491l0.982-0.245l0.491,0.368h0.615l0.982-2.825l3.07-1.105l1.474-2.824l1.719-3.438l1.229-1.105l0.246-1.965
	l-1.228,0.982l-2.579,0.491l-0.491-1.842l-0.982-0.245l-0.737,0.736l-0.123,2.211l-1.105-0.123l-1.105-4.421l-0.982,0.982
	l-0.859-0.368l-0.246-1.474l-3.071,0.122l-1.597,0.86l-1.964-0.246l1.105-1.104l0.369-1.965l-0.491-1.474l1.105-0.736l0.982-0.123
	l-0.491-1.352v-3.318l-0.737-0.737l-0.614,1.105h-4.667l-1.105-0.982l-0.491-2.947l-1.597-2.703v-0.736l1.597-0.614l0.123-1.598
	l0.859-0.859l-0.614-0.367l-0.982,0.367l-0.859-2.088l0.737-3.807l3.438-2.457l1.965-1.227l1.474-2.825l2.087-0.982l1.965,0.859
	l0.246,1.843l1.842-0.245l2.456-1.843l1.229,0.49l0.737,0.491H59.5l1.719-0.982l0.613-3.315c0,0,0.246-2.21,0.737-2.58
	c0.491-0.367,0.737-0.736,0.737-0.736l-0.859-1.474l-1.965,0.614l-2.456,0.614l-1.474-0.367l-2.703-1.352l-3.807-0.122l-2.702-2.825
	l0.369-2.947l0.491-1.842l-1.597-1.352l-1.474-2.824l0.368-0.614l5.158-0.368h1.597l0.737,0.737h0.492l-0.124-1.229l2.948-0.49
	l1.965,0.245l1.105,0.86l-1.105,1.597l-0.368,1.104l2.087,1.229l3.807,1.35l1.351-0.736l-1.719-3.316l-0.737-2.455l0.737-0.614
	l-2.579-1.474L60.48,352.8l0.369-1.229l-0.614-2.947l-2.21-3.562l-1.842-3.192l2.21-1.473h2.456l1.351,0.49l3.194-0.123l2.824-2.701
	l0.86-2.334l2.825-1.842l1.228,0.736l2.087-0.49l2.825-1.597l0.86-0.122l0.737,0.613l3.438-0.122l2.088-2.333h0.859l2.702,1.842
	l1.474,1.597l-0.368,0.859l0.491,0.859l1.228-1.227l2.948,0.245l0.246,2.824l1.474,1.105l5.403,0.49l4.79,3.193l1.105-0.736
	l3.93,1.965l1.597-0.491l1.474-0.614l3.685,1.473L121.516,346.168z M34.077,368.15l1.597,4.053l-0.124,0.737l-2.21-0.246
	l-1.351-3.069l-1.351-1.105h-1.842l-0.124-1.965l1.351-1.843l0.859,1.843l1.105,1.104L34.077,368.15z M32.112,393.572l2.824,0.614
	l2.824,0.737l0.614,0.736l-1.228,2.825l-2.334-0.123l-2.579-2.702L32.112,393.572z M16.393,382.888l0.859,1.965l0.86,1.229
	l-0.86,0.614l-1.597-2.334v-1.473L16.393,382.888L16.393,382.888z M5.954,438.397l2.579-1.72l2.579-0.737l1.965,0.245l0.368,1.228
	l1.474,0.369l1.474-1.475l-0.245-1.228l2.087-0.49l2.211,1.965l-0.859,1.351l-3.316,0.859l-2.088-0.367l-2.825-0.86l-3.315,1.105
	l-1.229,0.245L5.954,438.397z M43.165,434.958l1.228,1.474l1.597-1.229l-1.105-0.982L43.165,434.958z M45.375,437.292l0.86-1.72
	l1.597,0.245l-0.615,1.474L45.375,437.292L45.375,437.292z M63.305,435.817l1.105,1.352l0.737-0.86l-0.614-1.474L63.305,435.817z
	 M69.937,426.362l0.859,4.42l2.21,0.614l3.807-2.21l3.316-1.966l-1.228-1.842l0.368-1.842l-1.597,0.982l-2.21-0.614l1.228-0.86
	l1.474,0.615l2.948-1.351l0.369-1.105l-1.842-0.615l0.614-1.473l-2.088,1.473l-3.561,2.702l-3.684,2.211L69.937,426.362z
	 M102.112,411.256l1.842-1.105l-0.737-1.351l-1.35,0.736L102.112,411.256z"/>
<path id="Florida" fill="#FFFFFF" d="M575.276,339.963l1.722,5.56l2.832,7.4l4.053,7.124l2.825,4.789l3.685,4.175l3.07,2.825
	l1.228,2.21l-0.859,0.982l-0.614,0.983l2.21,5.649l2.21,2.21l1.966,4.053l2.702,4.421l3.438,6.263l0.981,5.772l0.369,9.088
	l0.49,1.351l-0.245,2.58l-1.843,0.981l0.246,1.474l-0.49,1.474l0.244,1.842l0.369,1.474l-2.089,2.456l-2.333,1.104l-2.947,0.123
	l-1.105,1.228l-1.842,0.737l-0.982-0.368l-0.859-0.736l-0.246-2.211l-0.614-2.579l-2.579-3.93l-2.702-1.72l-2.948-0.245
	l-0.614,0.982l-2.333-3.316l-0.49-2.701l-1.965-3.071l-1.352-0.859l-1.228,1.597l-1.35-0.245l-1.598-3.808l-2.211-2.946
	l-2.209-4.053l-1.966-2.334l-2.702-2.825l1.598-1.842l2.455-4.175l-0.123-1.229l-3.438-0.737l-1.228,0.491l0.245,0.49l1.966,0.737
	l-1.105,3.438l-0.615,0.368l-1.351-3.069l-0.982-3.686l-0.245-2.087l1.105-3.562v-7.246l-2.334-2.825l-0.982-2.333l-3.93-0.982
	l-1.474-0.49l-1.228-1.965l-2.58-1.228l-0.858-2.58l-2.089-0.737l-1.842-2.824l-3.193-1.105l-2.211-1.105h-1.964l-3.07,0.614
	l-0.123,1.474l0.614,0.736l-0.367,0.86l-2.334-0.123l-2.824,2.702l-2.703,1.474h-2.947l-2.455,0.982l-0.245-2.088l-1.229-1.473
	l-2.211-0.859l-1.227-1.105l-6.141-2.947l-5.772-1.352l-3.316,0.491l-4.543,0.368l-4.544,1.597l-2.643,0.465l-0.18-6.115
	l-1.966-1.473l-1.351-1.351l0.245-2.333l7.738-0.983l19.403-2.21l5.158-0.49l4.13,0.213l1.964,2.947l1.105,1.104l6.152,0.392
	l8.219-0.491l16.343-0.982l4.137-0.512l3.477,0.021l0.123,2.211l2.905,0.614l0.245-3.651l-1.228-3.439l0.726-0.556l3.883,0.345
	L575.276,339.963z M584.807,440.546l1.842-0.491l0.983-0.184l1.105-1.781l1.78-1.228l0.982,0.368l1.29,0.245l0.307,0.798
	l-2.642,0.922l-3.192,1.105l-1.781,0.921L584.807,440.546z M595.062,436.739l0.921,0.798l2.088-1.597l4.053-3.192l2.824-2.948
	l1.904-5.035l0.736-1.288l0.123-2.581l-0.553,0.369l-0.738,2.149l-1.104,3.499l-2.456,3.991l-3.315,3.193l-2.579,1.473
	L595.062,436.739z"/>
<path id="South Carolina" fill="#FFFFFF" d="M579.708,315.222l-1.35,0.737l-1.965-0.982l-0.491-1.597l-0.982-2.702l-1.72-1.598
	l-1.965-0.49l-1.228-3.685l-2.088-4.543l-3.193-1.474l-1.596-1.474l-0.983-1.965l-1.597-1.473l-1.72-0.983l-1.72-2.209l-2.333-1.72
	l-3.438-1.351l-0.367-1.105l-1.843-2.21l-0.368-1.104l-2.58-3.93l-2.578,0.123l-3.07-1.844l-0.982-0.982l-0.246-1.351l0.615-1.473
	l1.719-0.736l-0.245-1.597l4.668-1.965l6.877-3.438l5.525-0.615l12.525-0.367l1.72,1.472l1.229,2.455l3.315-0.367l9.579-1.105
	l2.21,0.615l9.579,5.772l7.679,6.17l-4.119,4.146l-1.965,4.667l-0.368,4.791l-1.228,0.613l-0.859,2.088l-1.843,0.492l-1.597,2.702
	l-2.088,2.087l-1.72,2.579l-1.228,0.615l-2.702,2.578l-2.211,0.123l0.737,2.457l-3.807,4.174L579.708,315.222z"/>
<path id="Georgia" fill="#FFFFFF" d="M525.306,273.467l-3.685,0.615l-6.386,0.859l-6.509,0.676v1.659l0.123,1.597l0.49,2.579
	l2.579,6.018l1.843,7.491l1.105,4.667l1.229,3.684l1.105,5.281l1.596,4.79l1.965,2.579l0.368,2.579l1.473,0.614l0.123,1.597
	l-1.35,3.685l-0.369,2.456l-0.122,1.474l1.228,3.315l0.246,4.053l-0.614,1.843l0.491,0.614l1.104,0.614l0.491,2.579l1.964,2.947
	l1.105,1.105l6.018,0.122l8.22-0.491l16.342-0.981l4.137-0.513l3.478,0.021l0.123,2.21l1.965,0.614l0.246-3.315l-1.229-3.438
	l0.859-1.228l4.422,0.614l3.78,0.24l-0.589-4.784l1.72-7.614l1.105-3.192l-0.368-1.966l2.533-4.743l-0.388-1.026l-1.454,0.534
	l-1.965-0.981l-0.49-1.598l-0.983-2.702l-1.72-1.596l-1.965-0.491l-1.228-3.685l-2.222-4.812l-3.193-1.474l-1.597-1.475
	l-0.982-1.964l-1.598-1.473l-1.719-0.983l-1.72-2.21l-2.333-1.721l-3.438-1.35l-0.368-1.105l-1.842-2.21l-0.368-1.104l-2.58-3.729
	l-2.578,0.122l-3.138-2.312l-0.983-0.982l-0.245-1.352l0.614-1.473l1.787-0.938l-0.86-0.935l0.06-0.221l-4.421,0.737l-5.28,0.615
	L525.306,273.467z"/>
<path id="Alabama" fill="#FFFFFF" d="M476.673,356.117l-1.226-11.544l-2.087-14.246l0.122-10.685l0.614-23.577l-0.123-12.65
	l0.125-4.875l5.893-0.282l21.124-1.964l6.777-0.503l-0.111,1.658l0.123,1.596l0.491,2.58l2.578,6.018l1.842,7.491l1.105,4.666
	l1.229,3.686l1.104,5.28l1.597,4.79l1.966,2.579l0.368,2.579l1.474,0.614l0.122,1.598l-1.35,3.685l-0.369,2.456l-0.122,1.473
	l1.228,3.315l0.245,4.053l-0.614,1.843l0.491,0.614l1.104,0.614l0.787,1.926h-4.791l-5.157,0.49l-19.403,2.211l-7.908,1.068
	l-0.074,2.851l1.351,1.351l1.965,1.473l0.441,6.029l-4.21,1.954l-2.088-0.245l2.088-1.474v-0.737l-2.334-4.544l-1.719-0.49
	l-1.105,3.316l-0.982,2.087l-0.492-0.122h-2.088V356.117z"/>
<path id="North Carolina" fill="#FFFFFF" d="M633.55,228.267l1.299,3.568l2.702,4.913l1.842,1.843l0.491,1.719l-1.842,0.122
	l0.614,0.491l-0.246,3.193l-1.965,0.983l-0.49,1.597l-0.982,2.209l-2.826,1.229l-1.842-0.245l-1.105-0.123l-1.228-0.982l0.245,0.982
	v0.736h1.474l0.614,0.983l-1.473,4.79h3.192l0.491,1.228l1.719-1.719l0.983-0.369l-1.474,2.703l-2.333,3.684h-0.982l-0.859-0.368
	l-2.088,0.491l-3.931,1.842l-4.912,4.053l-2.58,3.561l-1.473,4.913l-0.368,1.843l-3.562,0.368l-4.143,1.015l-7.556-6.23
	l-9.579-5.771l-2.21-0.615l-9.578,1.105l-3.249,0.57l-1.229-2.456l-2.256-1.607l-12.526,0.368l-5.525,0.614l-6.878,3.438
	l-4.667,1.965l-1.228,0.245l-4.422,0.737l-5.279,0.615l-5.158,0.368l0.379-3.08l1.351-1.105l2.089-0.491l0.49-2.825l3.193-2.087
	l2.947-1.105l3.193-2.702l3.315-1.596l0.49-2.333l2.948-2.948l0.491-0.123c0,0,0,0.86,0.613,0.86c0.614,0,1.474,0.245,1.474,0.245
	l1.719-2.702l1.597-0.491l1.721,0.246l1.227-2.702l2.211-1.966l0.369-1.597v-3.009l3.438,0.553l5.422-0.982l12.017-1.473
	l13.019-1.966l15.134-3.039l14.99-3.164l8.633-2.125L633.55,228.267z M636.509,253.325l1.966-1.903l2.395-1.965l1.166-0.491
	l0.122-1.535l-0.49-4.667l-1.105-1.78l-0.49-1.413l0.553-0.184l2.088,4.175l0.307,3.377l-0.123,2.58l-2.579,1.167l-2.149,1.842
	l-0.859,0.921L636.509,253.325z"/>
<path id="Tennessee" fill="#FFFFFF" d="M530.955,245.098l-39.421,3.807l-11.972,1.351l-3.511,0.39l-2.938-0.021v2.947l-6.387,0.369
	l-5.28,0.491l-8.429,0.04l-0.201,4.434l-1.625,4.766l-0.756,2.292l-1.025,3.328l-0.246,1.964l-3.07,1.721l1.105,2.702l-0.737,3.316
	l-0.735,0.6l5.512-0.147l18.298-1.474l4.053-0.122l6.141-0.369l21.123-1.965l7.726-0.614l6.396-0.737l6.386-0.859l3.686-0.615
	l-0.1-3.426l1.351-1.104l2.088-0.492l0.491-2.824l3.192-2.087l2.948-1.105l3.192-2.701l3.315-1.597l0.664-2.678l3.291-2.948
	l0.491-0.123c0,0,0,0.861,0.614,0.861c0.615,0,1.475,0.244,1.475,0.244l1.719-2.702l1.598-0.49l1.719,0.246l1.229-2.702l1.606-1.706
	l0.456-0.734l0.134-2.988l-1.127-0.218l-1.842,1.473l-6.019,0.123l-9.111,1.443L530.955,245.098z"/>
<path id="Rhode Island" fill="#FFFFFF" d="M665.428,138.134l-0.367-3.194l-0.614-3.316l-1.289-4.483l4.36-1.167l1.227,0.859
	l2.58,3.316l2.209,3.377l-2.21,1.167l-0.983-0.124l-0.859,1.351l-1.843,1.474L665.428,138.134z"/>
<path id="Connecticut" fill="#FFFFFF" d="M664.762,138.306l-0.477-3.193l-0.614-3.316l-1.229-4.543l-3.153,0.688l-16.579,3.623
	l0.49,2.518l1.105,5.527v6.14l-0.859,1.719l1.392,1.602l3.765-2.583l2.702-2.456l1.474-1.597l0.614,0.491l2.087-1.105l3.931-0.86
	L664.762,138.306z"/>
<path id="Massachusetts" fill="#FFFFFF" d="M685.108,133.597l1.651-0.521l0.347-1.303l0.78,0.086l0.782,1.737l-0.956,0.348
	l-2.953,0.086L685.108,133.597z M677.987,134.205l1.737-1.997h1.217l1.389,1.128l-1.823,0.782l-1.649,0.781L677.987,134.205z
	 M651.553,117.501l13.263-3.193l1.72-0.491l1.597-2.456l2.839-1.263l2.195,3.353l-1.843,3.93l-0.246,1.105l1.475,1.964l0.859-0.614
	h1.351l1.719,1.965l2.948,4.543l2.701,0.369l1.721-0.737l1.351-1.351l-0.614-2.088l-1.597-1.229l-1.105,0.614l-0.737-0.982
	l0.368-0.369l1.596-0.123l1.352,0.614l1.474,1.842l0.736,2.21l0.246,1.842l-3.193,1.105l-2.947,1.474l-2.947,3.438l-1.474,1.105
	v-0.737l1.843-1.105l0.367-1.35l-0.614-2.334l-2.21,1.105l-0.614,1.105l0.368,1.719l-1.569,0.76l-2.087-3.439l-2.579-3.316
	l-1.573-1.376l-4.963,1.425l-3.868,0.798l-16.579,3.623l-0.305-3.756l0.49-8.044l3.93-0.675L651.553,117.501z"/>
<path id="Maine" fill="#FFFFFF" d="M702.761,60.274l1.474,1.597l1.72,2.824v1.474l-1.597,3.562l-1.474,0.491l-2.579,2.333
	l-3.685,4.176c0,0-0.49,0-0.982,0c-0.491,0-0.737-1.597-0.737-1.597l-1.351,0.123l-0.737,1.105l-1.842,1.105l-0.737,1.105
	l1.228,1.105l-0.367,0.491l-0.368,2.088l-1.475-0.123v-1.228l-0.244-0.982l-1.105,0.245l-1.351-2.456l-1.597,0.982l0.982,1.105
	l0.246,0.86l-0.615,0.982l0.245,2.334l0.123,1.228l-1.228,1.965l-2.211,0.369l-0.245,2.21l-4.053,2.333l-0.982,0.368l-1.229-1.105
	l-2.332,2.702l0.736,2.456l-1.105,0.982l-0.122,3.316l-0.854,4.754l-1.87-0.878l-0.368-2.334l-2.947-0.859l-0.245-2.088
	l-5.526-17.807l-3.189-10.362l1.079-0.09l1.15,0.312v-1.965l0.614-4.175l1.966-3.561l1.104-3.07l-1.474-1.842V52.29l0.615-0.736
	l0.614-2.088l-0.123-1.105l-0.122-3.685l1.351-3.684l2.21-6.755l1.597-3.193h0.983l0.982,0.123v0.86l0.981,1.719l2.088,0.491
	l0.614-0.614v-0.737l3.07-2.21l1.352-1.351l1.104,0.123l4.543,1.842l1.474,0.737l6.877,22.719h4.544l0.614,1.474l0.123,3.684
	l2.21,1.719h0.615l0.122-0.368l-0.368-0.86L702.761,60.274z M686.86,83.177l1.166-1.167l1.045,0.798l0.429,1.842l-1.289,0.675
	L686.86,83.177z M691.957,78.694l1.35,1.412c0,0,0.983,0.062,0.983-0.184c0-0.245,0.184-1.535,0.184-1.535l0.676-0.613l-0.614-1.351
	L693,76.976L691.957,78.694z"/>
<path id="New Hampshire" fill="#FFFFFF" d="M670.539,109.724l0.66-0.818l0.828-2.5l-1.932-0.694l-0.367-2.333l-2.948-0.86
	l-0.245-2.087l-5.526-17.807l-3.495-11.048l-0.682-0.003l-0.49,1.228l-0.491-0.368l-0.737-0.737l-1.105,1.474l-0.036,3.822
	l0.236,4.305l1.474,2.087v3.071l-2.824,3.846l-1.965,0.859v0.86l0.859,1.351v6.508l-0.615,7l-0.122,3.685l0.737,0.982l-0.122,3.438
	l-0.369,1.351l1.105,0.673l12.45-3.563l1.721-0.491l1.165-1.938L670.539,109.724z"/>
<path id="Vermont" fill="#FFFFFF" d="M642.846,118.31l-0.614-4.298l-1.816-7.575l-0.49-0.246l-2.211-0.982l0.615-2.21l-0.615-1.597
	l-2.052-3.525l0.738-2.947l-0.615-3.93l-1.842-4.912l-0.611-3.739l19.938-5.126l0.245,4.42l1.475,2.088v3.07l-2.825,3.071
	l-1.964,0.859v0.86l0.859,1.351v6.508l-0.615,7.001l-0.123,3.684l0.738,0.982l-0.123,3.438l-0.369,1.351l0.503,1.19l-5.281,1.044
	L642.846,118.31z"/>
<path id="New York" fill="#FFFFFF" d="M630.896,145.425l-0.859-0.737l-1.965-0.122l-1.72-1.474l-1.239-4.656l-2.627,0.069
	l-1.856-2.057l-14.727,3.329l-32.667,6.632l-5.719,0.933l-0.561-4.913l1.085-0.854l0.981-0.86l0.737-1.229l1.352-0.859l1.474-1.351
	l0.367-1.229l1.598-2.087l0.859-0.737l-0.123-0.737l-0.982-2.334l-1.351-0.123l-1.474-4.667l2.211-1.351l3.315-1.105l3.07-0.982
	l2.456-0.368l4.789-0.123l1.474,0.982l1.229,0.123l1.597-0.982l1.965-0.859l3.93-0.369l1.597-1.351l1.351-2.456l1.228-1.474h1.597
	l1.475-0.859l0.122-1.719l-1.105-1.597l-0.245-1.105l0.859-1.597v-1.105h-1.351l-1.351-0.614l-0.613-0.86l-0.123-1.964l4.42-4.176
	l0.491-0.613l1.105-2.211l2.21-3.438l2.088-2.825l1.597-1.842l1.834-1.387l2.342-0.946l4.175-0.982l2.456,0.123l3.438-1.105
	l5.746-1.573l0.396,3.783l1.842,4.912l0.615,3.93l-0.737,2.947l1.965,3.439l0.614,1.597l-0.614,2.211l2.21,0.982l0.491,0.245
	l2.333,8.351l-0.407,3.844l-0.367,8.228l0.613,4.176l0.615,2.702l1.104,5.526v6.14l-0.859,1.72l1.397,1.514l0.604,1.274
	l-1.473,1.351l0.245,0.982l0.982-0.246l1.105-0.982l1.72-1.965l0.858-0.491l1.229,0.491l1.72,0.124l6.019-2.948l2.21-2.087
	l0.982-1.105l3.193,1.228l-2.58,2.702l-2.947,2.211l-5.403,4.053l-1.965,0.736l-4.421,1.474l-3.07,0.859l-0.893-0.405l-0.186-2.802
	l0.368-2.087l-0.122-1.597l-2.137-1.291l-3.439-0.737l-2.947-0.859L630.896,145.425z"/>
<path id="New Jersey" fill="#FFFFFF" d="M630.552,146.115l-1.597,1.842v2.333l-1.473,2.333l-0.123,1.228l0.981,0.982l-0.122,1.842
	l-1.72,0.86l0.614,2.087l0.123,0.86l2.088,0.245l0.736,1.964l2.703,1.842l1.842,1.229v0.614l-2.456,2.333l-1.229,1.719l-1.104,2.088
	l-1.72,0.982l-0.921,0.553l-0.184,0.921l-0.463,1.98l0.83,1.705l2.455,2.21l3.685,1.72l3.071,0.491l0.122,1.105l-0.614,0.736
	l0.245,2.088h0.614l1.597-1.842l0.614-3.684l2.088-3.071l2.334-4.912l0.858-4.176l-0.49-0.86l-0.122-7.123l-1.229-2.579l-0.86,0.614
	l-2.087,0.246l-0.368-0.369l0.859-0.736l1.597-1.474l0.048-0.832l-0.292-2.609l0.368-2.087l-0.123-1.597l-1.965-0.86l-3.438-0.737
	l-2.947-0.859L630.552,146.115z"/>
<path id="Pennsylvania" fill="#FFFFFF" d="M626.029,173.562l0.86-0.491l1.719-0.465l1.105-2.087l1.229-1.719l2.455-2.333v-0.614
	l-1.842-1.229l-2.702-1.842l-0.737-1.965l-2.088-0.246l-0.123-0.859l-0.613-2.088l1.719-0.859l0.123-1.843l-0.982-0.982l0.123-1.228
	l1.473-2.334v-2.333l1.782-1.842l0.162-0.823l-1.965-0.123l-1.72-1.474l-1.843-4.053l-2.282-0.707l-1.771-1.626l-14.122,3.07
	l-32.667,6.632l-6.755,1.105l-0.376-5.382l-4.169,4.277l-0.982,0.369l-3.192,2.286l2.212,14.538l1.884,7.391l2.714,14.633
	l2.483-0.485l9.073-1.142l28.812-5.823l11.3-2.145l6.306-1.233l0.203-0.181l1.598-1.228L626.029,173.562z"/>
<path id="Delaware" fill="#FFFFFF" d="M626.141,176.572l0.447-1.598l0.016-0.915l-0.964-0.067l-1.597,1.228l-1.105,1.105
	l1.105,3.192l1.72,4.298l1.597,7.369l1.229,4.79l3.806-0.123l4.667-0.92l-1.721-5.587l-0.736,0.369l-2.703-1.842l-1.35-3.562
	l-1.474-2.702l-1.72-0.737l-1.597-2.701L626.141,176.572z"/>
<path id="Maryland" fill="#FFFFFF" d="M637.231,195.474l-4.665,0.982l-4.411,0.123l-1.4-5.393l-1.597-7.369l-1.72-4.298
	l-0.979-3.341l-5.702,1.233l-11.302,2.145l-28.45,5.736l0.86,3.808l0.737,4.298l0.245-0.245l1.597-1.842l1.72-1.989l1.842-0.468
	l1.105-1.105l1.351-1.965l0.982,0.491l2.21-0.245l1.966-1.597l1.524-1.104l1.401-0.368l1.25,0.858l2.211,1.105l1.473,1.351
	l0.921,1.167l3.132,1.289v2.211l4.176,0.982l0.87,0.412l1.071-1.54l2.19,1.496l-0.971,1.885l-0.582,3.028l-1.351,1.964v1.597
	l0.491,1.351l3.846,1.029l3.275-0.047l2.333,0.737l1.598,0.246l0.736-1.596l-1.105-1.597v-1.351l-1.842-1.597l-1.597-4.175
	l0.981-4.053l-0.122-1.596l-0.982-0.983c0,0,1.104-1.228,1.104-1.72c0-0.491,0.369-1.597,0.369-1.597l1.474-0.982l1.473-1.229
	l0.369,0.737l-1.105,1.228l-0.983,2.824l0.246,0.86l1.35,0.246l0.369,4.176l-1.598,0.737l0.246,2.702l0.368-0.123l0.86-1.474
	l1.227,1.351l-1.227,0.982l-0.246,2.579l1.965,2.579l2.947,0.369l1.229-0.614l2.459,3.177l1.031,0.408l5.054-2.125l1.525-3.056
	L637.231,195.474z M624.597,202.3l0.859,1.903l0.123,1.351l0.86,1.412c0,0,0.675-0.676,0.675-0.921c0-0.246-0.553-2.334-0.553-2.334
	l-0.554-1.78L624.597,202.3z"/>
<path id="West Virginia" fill="#FFFFFF" d="M576.16,185.342l0.846,3.757l0.822,5.246l2.705-2.088l1.72-2.333l1.928-0.468l1.105-1.105
	l1.351-1.965l0.896,0.491l2.211-0.245l1.964-1.597l1.524-1.104l1.402-0.368l0.99,0.772l1.694,0.847l1.472,1.351l1.045,0.982
	l-0.109,3.548l-4.298-2.333l-3.438-1.351l-0.123,4.053l-0.368,1.597l-1.229,2.087l-0.49,1.229l-2.333,1.842l-0.369,1.719
	l-2.579,0.246l-0.245,2.333l-0.86,4.176h-1.965l-0.982-0.614l-1.228-2.088l-1.351,0.123l-0.245,3.316l-1.597,5.035l-3.808,8.228
	l0.614,0.982l-0.123,2.087l-1.597,1.474l-1.105-0.245l-2.455,1.842l-1.965-0.737l-1.351,3.562c0,0-2.825,0.615-3.316,0.738
	c-0.49,0.122-1.842-0.983-1.842-0.983l-1.842,1.719l-1.966,0.491l-2.21-0.614l-0.982-0.983l-1.666-2.296l-2.387-1.51l-1.965-2.087
	l-2.211-2.824l-0.491-1.719l-1.965-1.105l-0.614-1.228l-0.184-3.991l1.658-0.062l1.473-0.614l0.123-2.088l1.229-1.105l0.123-3.807
	l0.736-2.948l0.982-0.491l0.982,0.86l0.368,1.351l1.351-0.737l0.368-1.229l-0.859-1.351v-1.842l0.736-0.982l1.72-2.579l0.982-1.105
	l1.597,0.369l1.72-1.229l2.333-2.579l1.72-2.947l0.246-4.298l0.367-3.807v-3.562l-0.859-2.333l0.736-1.105l0.976-0.982l2.651,15.062
	l3.519-0.571L576.16,185.342z"/>
<path id="Kentucky" fill="#FFFFFF" d="M549.741,227.77l-1.767,2.038l-3.192,2.701l-3.266,4.484l-1.351,1.352v1.597l-2.948,1.596
	l-4.298,2.58l-2.674,0.293l-39.402,3.721l-11.972,1.351l-3.511,0.39l-2.938-0.021l-0.172,3.207l-6.215,0.11l-5.28,0.491
	l-7.924,0.156l1.453-0.169l1.656-1.338l1.564-0.87l0.174-2.432l0.694-1.389l-1.22-1.929l0.609-1.448l1.72-1.351l1.597-0.491
	l2.088,0.982l2.702,0.983l0.859-0.246l0.124-1.72l-0.982-1.843l0.246-1.718l1.473-1.105l1.965-0.491l1.228-0.491l-0.614-1.352
	l-0.492-1.472l0.86-0.614l0.799-2.518l2.271-1.289l4.421-0.737l2.702-0.369l1.105,1.474l1.351,0.614l1.351-2.456l2.211-1.105
	l1.473,1.229l0.615,0.859l1.597-0.368l-0.124-2.579l2.211-1.229l0.86-0.614l0.859,1.228h3.562l0.614-1.597l-0.244-1.719l2.21-2.702
	l3.562-2.948l0.368-3.438l2.087-0.246l2.948-1.351l2.087-1.474l-0.245-1.474l-1.105-1.105l0.43-1.657l3.132-0.185l1.842-0.614
	l2.211,1.229l1.228,3.316l4.422,0.246l1.35,1.351l1.598,0.123l1.842-1.105l2.333,0.368l0.982,1.105l2.088-1.964l1.35-0.982h1.229
	l0.491,2.088l1.351,0.737l1.84,1.683l0.122,4.175l0.615,1.229l1.965,1.105l0.49,1.719l2.211,2.824l1.965,2.088L549.741,227.77z"/>
<path id="Ohio" fill="#FFFFFF" d="M557.074,149.669l-4.629,3.079l-2.947,1.719l-2.579,2.824l-3.07,2.947l-2.456,0.614l-2.211,0.369
	l-4.175,1.964l-1.597,0.123l-2.579-2.333l-3.931,0.491l-1.965-1.105l-1.809-1.026l-3.717,0.534l-7.738,1.228l-5.895,0.921
	l0.983,11.114l1.351,10.438l1.965,17.807l0.43,3.67l3.131-0.099l1.842-0.614l2.556,1.142l1.573,3.316l3.903-0.013l1.438,1.61
	l1.339-0.049l1.928-1.019l1.902,0.282l1.5,1.105l1.312-1.619l1.781-0.982l1.573-0.518l0.49,2.088l1.351,0.737l2.641,1.78
	l1.659-0.062l0.87-0.872l-0.049-1.054l1.228-1.105l0.123-3.808l0.737-2.948l1.154-1.094l1.156,0.687l0.626,0.92l0.92-0.133
	l-0.321-1.832l-0.428-0.489v-1.842l0.737-0.982l1.719-2.579l0.982-1.105l1.598,0.368l1.719-1.228l2.334-2.579l1.719-2.948
	l0.159-4.125l0.369-3.807v-3.562l-0.859-2.333l0.736-1.105l0.699-0.726l-1.067-7.477L557.074,149.669z"/>
<path id="Michigan" fill="#FFFFFF" d="M443.264,63.866l1.39-1.563l1.65-0.608l4.082-2.953l1.737-0.434l0.347,0.347l-3.908,3.907
	l-2.518,1.476l-1.564,0.695L443.264,63.866z M508.728,88.272l0.491,1.903l2.456,0.124l0.982-0.921c0,0-0.062-1.105-0.307-1.229
	c-0.246-0.123-1.228-1.412-1.228-1.412l-1.659,0.185l-1.228,0.122l-0.245,0.86L508.728,88.272z M531.568,136.169l-2.456-6.263
	l-1.72-6.877l-1.842-2.456l-1.966-1.351l-1.228,0.86l-2.947,1.351l-1.474,3.807l-2.088,2.824l-0.859,0.491l-1.105-0.491
	c0,0-1.965-1.105-1.842-1.597c0.122-0.491,0.367-3.807,0.367-3.807l2.58-0.982l0.613-2.579l0.492-1.964l1.842-1.229l-0.245-7.614
	l-1.229-1.719l-0.982-0.615l-0.614-1.596l0.614-0.614l1.228,0.246l0.123-1.229l-1.842-1.719l-0.983-1.964h-1.964l-3.438-1.105
	l-4.176-2.579h-2.088l-0.49,0.492l-0.737-0.368l-2.333-1.72l-2.21,1.351l-2.211,1.719l0.245,2.702l0.737,0.245l1.597,0.369
	l0.368,0.614l-1.965,0.614l-1.965,0.246l-1.105,1.351l-0.245,1.597l0.245,1.228l0.245,4.175l-2.702,1.597l-0.49-0.123v-3.193
	l0.982-1.842l0.491-1.843l-0.614-0.614l-1.474,0.614l-0.737,3.193l-2.088,0.859l-1.35,1.474l-0.124,0.737l0.491,0.615l-0.491,1.964
	l-1.719,0.369v0.86l0.614,1.842l-0.859,4.667l-1.229,3.071l0.49,3.561l0.369,0.859l-0.614,1.842l-0.246,0.614l-0.245,2.088
	l2.701,4.543l2.211,4.912l1.105,3.684l-0.614,3.561l-0.736,4.544l-1.843,3.93l-0.246,2.087l-2.476,2.344l3.349-0.123l16.271-1.72
	l5.529-0.75l0.073,1.266l5.206-0.921l7.822-1.142l2.928-0.35l0.105-0.446l0.122-1.105l1.598-2.825l1.52-1.32l-0.169-3.838
	l1.213-1.213l0.829-0.261l0.168-2.702l1.167-2.302l0.799,0.46l0.123,0.491l0.614,0.123l1.473-0.737L531.568,136.169z
	 M432.533,86.013l0.543-0.441l2.088-0.614l2.701-1.719v-0.737l0.492-0.491l4.543-0.736l1.843-1.474l3.314-1.597l0.123-0.982
	l1.474-2.211l1.35-0.614l0.983-1.351l1.719-1.72l3.316-1.842l3.561-0.369l0.86,0.86l-0.245,0.737l-2.825,0.737l-1.105,2.333
	l-1.72,0.615l-0.368,1.842l-1.842,2.456l-0.246,1.965l0.614,0.369l0.737-0.86l2.703-2.211l0.983,0.982h1.719l2.456,0.737l1.105,0.86
	l1.105,2.333l2.087,2.088l2.947-0.123l1.105-0.737l1.228,0.982l1.229,0.369l0.982-0.614h0.86l1.228-0.737l3.07-2.702l2.58-0.859
	l5.035-0.245l3.438-1.474l1.965-0.982l1.105,0.123v4.298l0.368,0.245l2.211,0.614l1.473-0.368l4.667-1.229l0.86-0.859l1.105,0.369
	v5.28l2.455,2.333l0.982,0.491l0.982,0.737l-0.982,0.245l-0.614-0.245l-2.824-0.369l-1.597,0.492l-1.72-0.123l-2.457,1.105h-1.35
	l-4.421-0.982l-3.93,0.123l-1.474,1.964l-5.28,0.492l-1.843,0.613l-0.86,2.334l-0.982,0.859l-0.368-0.123l-1.105-1.228l-3.438,1.842
	h-0.49l-0.86-1.229l-0.614,0.123l-1.474,3.316l-0.736,3.071l-2.417,5.318l-0.895-0.787l-1.041-0.783l-1.475-7.815l-2.692-1.041
	l-1.56-1.737l-9.207-2.084l-2.169-0.782l-6.251-1.65l-5.995-0.869L432.533,86.013z"/>
<path id="Wyoming" fill="#FFFFFF" d="M270.542,110.75l-8.014-0.613l-24.376-2.503l-12.332-1.563l-21.535-3.126l-15.11-2.258
	l-1.078,8.49l-2.917,18.429l-3.994,23.099l-1.163,7.989l-1.268,9.031l4.956,0.705l19.659,1.899l15.625,1.752l27.943,3.126
	l18.096,2.172l3.421-33.571l1.094-19.278L270.542,110.75z"/>
<path id="Montana" fill="#FFFFFF" d="M272.38,94.416l0.492-8.471l1.716-18.83c0.347-3.82,0.823-6.436,1.042-11.707l0.713-11.055
	l-23.302-2.133l-22.228-2.701l-22.229-3.071l-24.562-4.053l-14-2.579l-24.859-5.266l-3.402,16.217l2.605,5.731l-1.042,3.473
	l1.39,3.474l2.432,1.042l3.51,8.182l2.047,2.414l0.347,0.869l2.605,0.868l0.348,1.563l-5.383,13.373v1.911l1.91,2.432h0.694
	l3.647-2.258l0.521-0.868l1.215,0.521l-0.174,3.994l2.085,9.552l2.258,1.911l0.695,0.521l1.389,1.736l-0.347,2.605l0.521,2.605
	l0.868,0.694l1.737-1.736h2.084l2.431,1.216l1.911-0.695h3.126l2.779,1.215l2.084-0.347l0.347-2.258l2.258-0.521l1.042,1.042
	l0.348,2.431l1.352,1.037l1.165-8.785l15.719,2.257l21.413,3.004l12.576,1.441l23.887,2.625l8.349,1.158l0.8-11.72L272.38,94.416z"
	/>
<path id="Idaho" fill="#FFFFFF" d="M124.587,138.997c-17.177-3.3-10.747-2.163-16.06-3.305l3.363-13.295l3.3-13.459l1.042-3.213
	l1.911-4.516l-0.955-1.736l-1.911,0.086l-0.607-0.782l0.347-0.868l0.26-2.344l3.387-4.168l1.389-0.348l0.869-0.868l0.434-2.432
	l0.695-0.521l2.953-4.429l2.952-3.3l0.174-2.866l-2.606-1.997l-0.998-3.343l0.304-7.338l2.779-12.504l3.386-15.805l2.866-10.247
	l0.579-2.889l9.873,1.92l-3.159,16.339l2.24,5.853l-0.798,3.474l1.511,3.474l2.432,1.285l3.388,7.45l2.047,2.9l0.469,0.868
	l2.605,0.868l0.348,1.929l-5.262,12.764l0.244,2.52l2.032,2.187l1.426,0.365l3.647-2.746l0.277-0.381l0.119,0.644l0.192,3.142
	l1.962,9.796l2.624,2.033l0.329,0.643l1.633,1.859l-0.591,2.117l0.521,2.849l1.478,0.695l1.615-1.25l1.962-0.366l2.553,1.216
	l1.911-0.451l2.882-0.122l3.022,1.215l2.084-0.226l0.713-1.77l1.892-1.252l0.555,1.286l0.469,1.701l1.753,1.929l-2.865,18.217
	l-3.908,22.037l-3.16-0.242l-6.217-1.164l-7.45-1.39l-9.24-1.807l-9.517-1.902l-6.444-1.397l-7.034-1.267L124.587,138.997z"/>
<path id="Washington" fill="#FFFFFF" d="M112.162,67.424c-6.362-1.721-10.254-2.3-14.613-2.174
	c-3.268,0.094-6.18-0.067-6.471-0.358s-1.619-0.15-2.951,0.315c-1.354,0.471-3.418,0.56-4.679,0.2
	c-1.241-0.355-3.022-0.738-3.958-0.851c-0.936-0.112-3.909-0.93-6.607-1.814c-2.965-0.974-6.133-1.452-8.008-1.21
	c-4.427,0.572-7.073-1.31-6.579-4.679c0.462-3.153-1.229-7.49-2.921-7.49c-0.69,0-1.688-0.592-2.217-1.315
	c-0.529-0.724-2.057-1.37-3.394-1.435c-1.338-0.065-2.706-0.496-3.039-0.955c-0.991-1.365-0.715-2.901,0.519-2.901
	c1.584,0,2.384-2.442,1.249-3.811c-1.211-1.459-0.364-3.623,1.419-3.623c1.25,0,1.232-0.178-0.178-1.735
	c-1.273-1.408-1.537-2.832-1.395-7.539c0.097-3.192-0.197-6.501-0.653-7.353c-0.887-1.658,0.385-8.149,1.598-8.149
	c0.357,0,1.551,0.965,2.652,2.143c2.363,2.53,4.609,3.769,10.708,5.912c4.801,1.686,6.571,1.611,6.571-0.278
	c0-0.644,0.65-1.141,1.446-1.105c0.863,0.039,1.03,0.233,0.413,0.482c-0.568,0.229-1.033,0.956-1.033,1.616
	c0,1.342,2.38,5.271,3.192,5.271c0.947,0,0.415-12.757-0.613-14.676c-1.606-3-0.464-3.407,5.051-1.792
	c9.344,2.734,36.367,9.791,46.051,12.023c5.223,1.204,9.597,2.271,9.719,2.37c0.123,0.099-0.527,2.557-1.442,5.463
	c-2.298,7.296-8.276,35.549-8.276,39.116C123.724,70.606,123.909,70.601,112.162,67.424L112.162,67.424z"/>
<path id="Texas" fill="#FFFFFF" d="M272.671,254.78l17.237,0.825l23.62,0.869l-1.774,17.818l-0.226,13.791l0.052,1.581l3.299,2.9
	l1.319,0.625l1.375,0.193l0.521-0.954l0.677,0.658l1.319,0.364l1.219-0.553l0.865,0.311l-0.226,2.587l3.248,0.782l2.033,0.625
	l3.003,0.399l1.667,1.389l2.468-1.196l2.117,0.276l1.545,2.117l0.816,0.244l-0.122,1.493l2.347,0.887l2.103-1.371l1.146,0.276
	l1.788,0.122l0.329,1.423l3.525,1.511l2.018-0.155l1.511-3.126h0.259l0.868,1.441l3.371,0.765l2.535,0.92l2.501,0.572l1.633-0.572
	l0.643-1.91h2.812l1.44,0.572l2.328-1.197h0.502l0.276,0.851h3.248l1.826-0.954l1.267,0.226l1.076,1.423l2.188,1.268l2.674,0.816
	l2.084,1.077l1.859,1.232l2.501-0.677l1.473,0.747l0.39,7.701l0.254,7.371l0.521,7.242l0.399,3.074l2.033,3.493l0.817,3.089
	l2.934,4.777l0.417,2.188l0.398,0.766l-0.521,5.694l-2.014,3.334l0.728,2.172l-0.277,1.911l-0.643,5.558l-1.042,2.064l0.459,3.334
	l-4.304,1.203l-7.491,3.438l-0.737,1.473l-1.965,1.474l-1.597,1.105l-0.982,0.615l-4.297,4.052l-2.088,1.597l-4.053,2.456
	l-4.298,1.842l-4.789,2.58l-1.351,1.104l-4.421,2.702l-2.579,0.491l-2.948,4.176l-3.07,0.245l-0.738,1.473l1.72,1.474l-1.105,4.176
	l-0.982,3.438l-0.859,2.947l-0.615,3.438l0.615,1.843l1.35,5.279l0.737,4.667l1.351,2.089l-0.736,1.104l-2.334,1.474l-4.298-2.947
	l-4.176-0.86l-0.982,0.368l-2.456-0.49l-3.193-2.334l-3.93-0.859l-5.773-2.579l-1.596-2.948l-0.982-4.912l-2.457-1.473l-0.49-1.72
	l0.49-0.491l0.246-2.58l-0.982-0.49l-0.491-0.736l0.982-3.316l-1.228-1.719l-2.457-0.982l-2.579-3.315l-2.703-5.036l-3.192-1.965
	l0.122-1.474l-4.053-9.333l-0.614-3.193l-1.351-1.473l-0.123-1.105l-4.543-4.053l-1.964-2.333v-0.859l-1.965-1.597l-5.158-0.86
	l-5.65-0.49l-2.333-1.72l-3.438,1.35l-2.702,1.105l-1.72,2.456l-0.737,2.825l-3.315,4.666l-1.842,1.843l-1.965-0.737l-1.351-0.859
	l-1.473-0.49l-2.948-1.721v-0.49l-1.35-1.474l-3.93-1.596l-5.65-5.896l-1.719-3.562v-6.141l-2.457-4.911l-0.368-2.089l-1.228-0.736
	l-0.86-1.598l-3.807-1.596l-0.982-1.229l-5.404-6.018l-0.982-2.456l-3.562-1.719l-1.105-3.316l-1.965-2.211l-1.474-0.367
	l-0.493-3.554l6.079,0.521l22.057,2.084l22.057,1.216l1.737-18.062l2.953-42.204l1.216-14.242l1.042,0.022 M348.771,432.502
	l-0.43-5.403l-2.087-5.466l-0.43-5.341l1.166-6.263l2.518-5.22l2.64-4.113l2.395-2.702l0.49,0.184l-3.623,5.035l-3.316,4.975
	l-1.535,5.034l-0.246,3.93l0.675,4.667l1.965,5.465l0.369,3.931l0.122,1.104L348.771,432.502z"/>
<path id="California" fill="#FFFFFF" d="M105.308,295.331l2.898-0.371l1.129-1.528l0.556-1.475l-2.413-0.068l-0.835-1.34
	l0.591-1.303l-0.035-4.672l1.685-1.009l2.049-1.961l0.312-3.734l1.25-2.658l1.476-1.598l2.483-1.303l0.972-0.553l0.574-1.127
	l-0.659-0.679l-0.73-1.146l-0.712-4.064l-2.207-3.978l0.074-2.116l-1.672-2.467l-11.394-17.647L85.939,216.72l-17.037-25.094
	l-9.649-14.848l1.365-5.476l5.175-19.712l6.166-23.881l-9.393-2.535l-10.248-2.605l-9.552-3.126l-5.73-1.563l-8.684-2.258
	l-5.356-1.833l-1.2,3.59l-0.123,5.649l-3.93,8.965l-2.334,1.965l-0.245,0.859l-1.351,0.615l-1.105,3.193l-0.614,2.456l2.088,3.193
	l1.227,3.193l0.86,2.702l-0.245,4.913l-1.351,2.333l-0.491,4.421l-0.737,2.825l1.351,2.947l2.087,3.438l1.72,3.684l0.982,3.071
	l-0.245,2.456l-0.246,0.368v1.597l4.298,4.79l-0.369,1.842l-0.491,1.719l-0.491,1.474l0.123,6.264l1.597,2.824l1.474,1.964
	l2.087,0.369l0.737,2.088l-0.86,2.702l-1.597,1.228h-0.859l-0.615,2.947l0.369,2.211l2.456,3.316l1.228,4.052l1.105,3.561
	l0.982,2.333l2.579,4.42l1.105,1.966l0.368,2.209l1.229,0.737v1.843l-0.615,1.474l-1.351,5.404l-0.369,1.472l1.842,2.088
	l3.193,0.369l3.439,1.35l2.948,1.597h2.21l2.21,2.333l1.965,3.685l0.859,1.72l2.948,1.597l3.684,0.614l1.105,1.596l0.491,2.457
	l-1.105,0.491l0.245,0.736l2.457,0.614l2.087,0.124l2.21,3.561l2.947,3.193l0.614,1.72l1.964,3.193l0.246,2.456v7.123l0.368,1.352
	l7.614,1.105l14.983,2.087L105.308,295.331z M38.497,257.563l0.982,1.166l-0.124,0.983L36.9,259.65l-0.43-0.921l-0.491-1.105
	L38.497,257.563z M39.971,257.563l0.921-0.491l2.702,1.597l2.334,0.921l-0.676,0.491l-3.438-0.184l-1.229-1.228L39.971,257.563z
	 M55.69,272.606l1.351,1.782l0.614,0.736l1.167,0.43l0.43-1.105l-0.737-1.352l-2.026-1.534l-0.798,0.123V272.606z M54.585,279.177
	l1.351,2.394l0.92,1.474l-1.105,0.184l-0.982-0.922c0,0-0.553-1.104-0.553-1.412c0-0.306,0-1.658,0-1.658L54.585,279.177z"/>
<path id="Arizona" fill="#FFFFFF" d="M106.072,295.897l-1.996,1.64l-0.246,1.105l0.369,0.737l14.368,8.104l9.211,5.772l11.176,6.509
	l12.771,7.614l9.333,1.842l19.088,2.055l1.923-9.501l2.851-20.695l5.291-40.171l3.234-23.524l-18.685-2.794l-20.667-3.473
	l-25.395-4.8l-2.22,13.744l-0.348,0.347l-1.302,1.997l-1.911-0.086l-0.955-2.085l-2.084-0.26l-0.695-0.869h-0.694l-0.695,0.435
	l-1.476,0.781l-0.086,5.298l-0.174,1.303l-0.434,9.552l-1.129,1.65l-0.434,2.517l2.084,3.735l0.956,4.429l0.607,0.781l0.782,0.433
	l-0.087,1.737l-1.215,1.042l-2.605,1.303l-1.476,1.476l-1.129,2.779l-0.434,3.733l-2.171,2.084l-1.563,0.521l-0.087,4.429
	l-0.348,1.303l0.348,0.608l2.779,0.433l-0.434,2.084l-1.129,1.65L106.072,295.897z"/>
<path id="Nevada" fill="#FFFFFF" d="M108.284,136.423l15.938,3.427l7.381,1.476l7.033,1.39l5.025,1.24l-0.424,4.456l-2.692,13.165
	l-3.109,15.178l-1.477,7.383l-1.649,10.09l-2.397,12.47l-2.675,11.916l-1.495,7.733l-1.873,12.741l-0.347,0.835l-0.815,1.875
	l-1.423-0.087l-0.833-2.084l-2.084-0.382l-1.061-0.747l-1.548,0.244l-0.695,0.556l-0.989,1.026l-0.331,5.298l-0.418,1.303
	l-0.312,9.186l-1.004,1.303l-1.425-1.718l-11.028-17.281l-14.763-22.057l-17.281-25.704l-9.405-14.118l1.243-4.988l5.297-19.712
	l5.992-23.814l25.53,6.186l10.42,2.258"/>
<path id="Utah" fill="#FFFFFF" d="M193.604,236.497l-18.721-2.638l-20.18-3.718l-25.697-4.573l1.206-6.956l2.432-11.549
	l2.519-12.592l1.65-10.333l1.476-6.774l2.866-15.543l2.691-13.286l0.847-4.234l9.661,1.716l9.118,1.563l7.815,1.389l6.339,1.042
	l2.794,0.364l-1.128,8.075l-1.756,10.007l5.932,0.705l12.464,1.372l6.237,0.65l-1.618,16.688l-2.432,17.142l-2.851,21.139
	l-1.266,8.438L193.604,236.497z"/>
<path id="Colorado" fill="#FFFFFF" d="M289.055,196.607l1.093-16.167l-24.381-2.328l-18.583-2.051l-28.31-3.126l-15.717-1.911
	l-1.997,16.846l-2.432,17.021l-2.851,21.26l-1.143,8.438l-0.19,2.099l25.772,2.883l28.67,3.242l24.279,2.405l12.617,0.643L289.055,196.607z"/>
<path id="New Mexico" fill="#FFFFFF" d="M216.206,328.977l-0.494-4.651l6.566,0.399l22.423,2.327l21.569,1.094l1.493-16.965
	l2.831-42.447l0.85-14.73l1.53,0.267l-0.011-8.413l-24.463-1.826l-28.061-3.363l-26.182-3.125l-3.191,23.366l-5.291,40.415
	l-2.85,20.452l-1.556,10.11l11.744,1.511l0.982-7.613l12.649,1.965L216.206,328.977z"/>
<path id="Oregon" fill="#FFFFFF" d="M108.016,135.75l3.265-13.598l3.543-13.582l0.798-3.213l1.788-4.271l-0.467-0.883l-1.911-0.035
	l-0.974-1.269l0.348-1.112l0.382-2.467l3.387-4.168l1.389-0.835l0.868-0.868l1.129-2.709l3.074-4.307l2.708-2.934l0.174-2.622
	l-2.483-1.875l-0.918-3.426l-10.056-2.845l-11.463-2.691l-11.723,0.087l-0.348-1.042l-4.168,1.563l-3.387-0.435l-1.824-1.216
	l-0.955,0.521l-3.561-0.174l-1.303-1.042l-3.994-1.563l-0.607,0.086l-3.3-1.129l-1.476,1.39l-4.689-0.261L56.748,59.7l0.521-0.608
	l0.173-5.906l-1.737-2.953l-3.126-0.434l-0.521-1.911l-1.788-0.354l-4.405,1.564l-1.719,4.912l-2.456,7.614l-2.456,4.912
	l-3.807,10.686l-4.913,10.316l-6.14,9.579l-1.474,2.211l-0.614,6.508l-0.982,4.543l2.057,2.679l5.112,1.71l8.806,2.502l5.976,1.929
	l9.431,2.761l10.125,2.727l10.003,2.708L108.016,135.75z"/>
<path id="North Dakota" fill="#FFFFFF" d="M359.463,98.513l-0.277-5.694l-1.511-5.558l-1.39-10.369l-0.347-7.468l-1.512-2.361
	l-1.215-4.065v-7.815l0.521-2.953l-1.606-4.177l-21.593-0.429l-14.123-0.491l-20.141-0.982l-18.951-1.432l-0.958,10.81
	l-1.042,11.462l-1.716,18.951l-0.37,8.373l43.161,2.859L359.463,98.513z"/>
<path id="South Dakota" fill="#FFFFFF" d="M360.596,155.878l-0.724-0.821l-1.155-2.755l1.389-2.812l0.798-4.22l-1.962-1.563
	l-0.226-2.084l0.451-2.276l1.634-0.609l0.226-4.357l-0.052-22.855l-0.47-2.257l-3.126-2.728l-0.746-1.511v-1.459l1.441-0.972
	l1.164-1.408l0.139-2.065l-43.592-1.215l-42.673-2.953l-0.583,4.01l-1.225,12.054l-1.022,13.634l-1.216,18.685l12.175,0.782
	l14.918,0.868l13.668,0.99l18.062,0.991l8.163-0.591l2.172,1.737l3.281,2.258l0.747,0.573l2.69-0.677l3.074-0.226l2.084-0.052
	l2.364,0.92l3.455,1.093l2.381,1.338l0.469,1.459l0.694,1.441l0.537-0.365H360.596z"/>
<path id="Nebraska" fill="#FFFFFF" d="M369.292,189.158l1.042,2.032l0.071,1.615l1.788,2.831l2.067,2.395h-3.836l-33.032-0.713
	l-30.984-0.676l-16.097-0.73l0.814-16.202l-25.357-2.084l3.3-33.433l11.811,0.782l15.283,0.868l13.546,0.868l18.063,0.869
	l8.163-0.348l1.563,1.737l3.648,2.258l0.869,0.695l3.3-1.042l2.953-0.348l2.083-0.174l1.39,1.042l3.82,1.216l2.258,1.215
	l0.347,1.216l0.695,1.563h1.389l0.607,0.035l0.746,3.959l2.084,6.098l0.938,3.525l1.615,2.901l0.399,3.751l1.093,3.249l0.417,4.914"
	/>
<path id="Iowa" fill="#FFFFFF" d="M431.85,154.698l0.129,1.475l1.738,0.866l0.867,0.955l0.261,0.958l2.953,2.433l0.522,1.651
	l-0.608,2.174l-1.13,2.692l-0.607,2.083l-1.651,1.218l-1.303,0.435l-4.167,1.128l-0.522,1.734l-0.607,1.736l0.435,1.042l1.304,1.302
	l-0.001,2.781l-1.648,1.216l-0.349,1.129v1.912l-1.131,0.347l-1.302,1.041l-0.346,1.128l0.346,1.304l-1.044,0.916l-1.743-2.044
	l-1.127-1.995l-6.336,0.606l-7.727,0.434l-19.019,0.523l-9.902,0.174l-7.121,0.174l-0.999,0.093l-1.256-3.397l-0.174-5.036
	l-1.216-3.126l-0.521-3.994l-1.737-2.779l-0.694-3.647l-2.084-5.731l-0.87-4.082l-1.042-1.65l-1.216-2.084l1.39-3.3l1.042-4.342
	l-2.084-1.563l-0.347-2.084l0.694-1.91h1.303h8.77l37.688-0.521l15.1-0.521l1.407,2.086l1.392,1.992l0.346,0.61l-1.39,2.088
	l0.346,3.208l1.911,2.952l2.255,1.386l1.828,0.175L431.85,154.698z"/>
<path id="Missouri" fill="#FFFFFF" d="M423.642,191.085l-1.916-2.345l-0.868-1.737l-5.905,0.521l-7.468,0.347l-19.278,0.695
	l-10.246,0.174l-5.993,0.087l-1.736,0.086l0.955,1.911l-0.174,1.737l1.911,2.952l2.345,3.126l2.344,2.083l1.737,0.174l1.042,0.695
	v2.258l-1.389,1.216l-0.347,1.737l1.563,2.605l1.91,2.258l1.911,1.39l1.042,8.857l-0.521,26.834l0.174,3.56l0.347,4.09l17.801-0.089
	l17.628-0.521l15.805-0.608l8.854-0.175l1.647,2.603l-0.519,2.512l-2.346,1.827l-0.435,1.396l4.086,0.347l2.959-0.522l1.305-4.173
	l0.494-4.449l1.761-1.538l1.301-1.128l1.563-0.782l0.086-2.173l0.437-1.303l-0.784-1.328l-2.085,0.11l-1.648-1.994l-1.044-3.212
	l0.61-1.914l-1.477-2.604l-1.391-3.475l-3.646-0.608l-5.294-4.253l-1.307-3.125l0.608-2.432l1.564-4.602l0.349-2.176l-1.481-0.783
	l-5.207-0.606l-0.781-1.301l-0.084-3.213l-4.167-2.606l-5.3-5.903l-1.737-5.558l-0.174-3.209L423.642,191.085z"/>
<path id="Mississippi" fill="#FFFFFF" d="M475.884,356.268l-0.193,0.954h-3.93l-1.105-0.614l-1.596-0.246l-5.158,1.475l-1.351-0.615
	l-1.965,3.193l-0.837,0.591l-0.853-1.89l-0.87-2.953l-2.605-2.431l0.869-5.731l-0.521-0.694l-1.39,0.174L448.126,348l-18.41,0.522
	l-0.347-1.217l0.521-6.078l2.606-4.689l3.994-6.947l-0.694-1.563h0.869l0.521-2.432l-1.736-1.39l0.173-1.39l-1.563-3.473
	l-0.217-4.06l1.042-2.019l-0.303-3.301l-1.042-2.258l1.042-1.042l-1.042-1.563l0.347-1.39l0.694-4.688l2.258-2.084l-0.522-1.563
	l2.779-3.994l2.084-0.695v-1.911l-0.521-1.042l2.083-3.995l2.084-0.868l0.082-2.592l6.59-0.059l18.298-1.473l3.479-0.174l0.007,4.84
	l0.122,12.649l-0.613,23.578l-0.123,10.685l2.087,14.246L475.884,356.268z"/>
<path id="Indiana" fill="#FFFFFF" d="M471.221,230.077l0.049-2.172l0.368-3.438l1.72-2.211l1.35-2.947l1.964-3.193l-0.367-4.421
	l-1.351-2.088l-0.246-2.456l0.614-4.175l-0.368-5.281l-0.983-12.158l-0.982-11.667l-0.737-8.903l2.333,0.676l1.105,0.736l0.86-0.245
	l1.597-1.474l2.149-1.229l3.869-0.123l16.702-1.719l4.234-0.405l1.144,12.122l3.229,27.986l0.455,4.384l-0.282,1.719l0.934,1.364
	l0.072,1.042l-1.915,1.216l-2.689,1.178l-2.432,0.418l-0.455,3.697l-3.476,2.516l-2.124,3.046l0.245,1.806l-0.441,1.165h-2.526
	l-1.205-1.228l-1.894,0.958l-2.038,1.142l0.122,2.32l-0.906,0.196l-0.355-0.773l-1.646-1.142l-2.469,1.019l-1.179,2.284
	l-1.093-0.615l-1.105-1.214l-3.392,0.367l-4.249,0.737L471.221,230.077z"/>
<path id="Illinois" fill="#FFFFFF" d="M470.753,230.644v-2.738l0.196-3.697l1.807-2.383l1.35-2.861l1.965-2.935l-0.283-3.99
	l-1.523-2.69l-0.074-2.542l0.528-4.003l-0.627-5.453l-0.81-11.986l-0.983-11.408l-0.7-8.842l-0.207-0.7l-0.615-1.965l-0.982-2.824
	l-1.229-1.351l-1.104-1.965l-0.177-4.169l-7.523,0.997l-20.667,1.303l-6.6-0.326l0.174,1.802l1.737,0.521l0.695,0.868l0.347,1.39
	l2.953,2.604l0.521,1.737l-0.521,2.605l-1.39,2.779l-0.521,1.911l-1.736,1.39l-1.39,0.521l-3.994,1.042l-0.521,1.389l-0.521,1.563
	l0.521,1.042l1.389,1.215l-0.174,3.126l-1.389,1.216l-0.522,1.216v2.084l-1.389,0.347l-1.216,0.869l-0.173,1.042l0.173,1.563
	l-1.303,0.998l-0.782,2.128l0.347,2.779l1.737,5.558l5.558,5.731l4.167,2.779l-0.173,3.3l0.694,1.042l4.862,0.347l2.084,1.042
	l-0.521,2.779l-1.736,4.515l-0.521,2.432l1.736,2.952l4.863,3.995l3.473,0.521l1.563,3.821l1.564,2.431l-0.694,2.258l1.215,3.126
	l1.389,1.563l1.477-0.601l0.521-1.644l1.548-1.093l2.458-0.836l2.346,0.896l2.185,0.81l0.601-0.16l-0.05-0.944l-0.81-2.1
	l0.333-1.806l1.732-1.191l1.792-0.75l0.883-0.319l-0.442-1.005l-0.577-1.646l0.946-0.959L470.753,230.644z"/>
<path id="Minnesota" fill="#FFFFFF" d="M359.899,99.124l-0.347-6.426l-1.39-5.558l-1.389-10.247l-0.347-7.468l-1.39-2.605
	l-1.216-3.821v-7.815l0.522-2.953l-1.383-4.142l22.891,0.026l0.246-6.263l0.49-0.124l1.72,0.369l1.473,0.614l0.615,4.176
	l1.104,4.667l1.228,1.228h3.685l0.245,1.105l4.791,0.245v1.597h3.684l0.245-0.982l0.86-0.86l1.72-0.491l0.982,0.737h2.21
	l2.948,1.965l4.053,1.842l1.843,0.369l0.367-0.737l1.105-0.369l0.369,2.211l1.965,0.982l0.367-0.369l0.982,0.124v1.597l1.966,0.737
	h2.333l1.229-0.614l2.456-2.456l1.964-0.369l0.614,1.351l0.369,0.982h0.736l0.737-0.614l6.755-0.246l1.35,2.333h0.491l0.542-0.823
	l3.372-0.282l-0.465,1.731l-2.992,1.396l-7.023,3.085l-3.627,1.524l-2.333,1.965l-1.842,2.702l-1.72,2.947l-1.351,0.615
	l-3.438,3.806l-0.982,0.123l-2.918,2.229l-2.139,2.401l-0.174,2.256l0.173,5.908l-1.214,1.216l-3.995,3.125l-1.392,4.343
	l1.914,2.771l0.348,1.914l-0.872,2.259l-0.173,2.78l0.348,5.381l2.603,3.12h2.26l1.907,1.742l2.433,1.037l2.78,3.825l5.384,3.816
	l1.39,1.566l0.178,4.18l-15.64,0.521l-45.769,0.349l-0.257-27.102l-0.347-2.258l-3.126-2.605l-0.87-1.389v-1.216l1.564-1.216
	l1.042-1.042L359.899,99.124z"/>
<path id="Wisconsin" fill="#FFFFFF" d="M467.059,151.32l0.28-2.256l-1.227-3.439l-0.491-4.667l-0.86-1.842l0.736-2.333l0.615-2.211
	l1.105-1.964l-0.492-2.579l-0.49-2.702l0.368-1.351l1.473-1.842l0.123-2.087l-0.615-0.982l0.491-1.964l0.368-2.456l2.087-4.298
	l2.211-5.158l0.123-1.719l-0.246-0.737l-0.614,0.368l-3.193,4.79l-2.088,3.07l-1.473,1.351l-0.614,1.719l-1.105,0.614l-0.859,1.474
	l-1.105-0.246l-0.123-1.351l0.983-1.842l1.597-3.562l1.35-1.228l0.837-1.741l-1.239-0.688l-1.042-1.042l-1.216-7.815l-2.779-0.869
	l-1.042-1.737l-9.551-2.084l-1.912-0.868l-6.252-1.737l-6.251-0.868l-3.167-4.106l-0.401,0.958l-0.861-0.123l-0.49-0.86
	l-2.087-0.614l-0.86,0.124l-1.351,0.736l-0.737-0.491l0.491-1.474l1.473-2.333l0.86-0.86l-1.473-1.105l-1.597,0.614l-2.211,1.474
	l-5.649,2.457l-2.211,0.491l-2.21-0.369L411.7,84.29l-1.607,2.153l-0.174,2.084v6.426l-0.869,1.216l-3.994,2.952l-1.737,4.516
	l0.347,0.174l1.91,1.563l0.521,2.431l-1.389,2.432v2.953l0.348,5.037l2.257,2.257h2.605l1.39,2.432l2.605,0.348l2.953,4.341
	l5.384,3.126l1.562,2.084l0.695,5.645l0.521,2.518l1.737,1.216l0.174,1.042l-1.563,2.604l0.174,2.432l1.911,2.953l1.91,0.868
	l2.257,0.348l1.021,1.048h6.969l19.801-1.13L467.059,151.32z"/>
<path id="Arkansas" fill="#FFFFFF" d="M450.354,263.576l-2.923,0.712l-4.689-0.347l0.522-2.258l2.431-2.083l0.347-1.737
	l-1.389-2.258l-8.337,0.347l-15.805,0.695l-17.715,0.521l-17.714,0.348l1.216,5.21v6.252l1.042,8.335l0.174,28.744l1.736,1.477
	l2.258-1.042l2.084,0.868l0.327,7.843l17.385-0.108l14.331-0.609l7.688-0.149l0.87-1.589l-0.217-2.696l-1.386-2.258l1.215-1.128
	l-1.215-1.908l0.52-1.906l1.039-4.258l1.914-1.566l-0.521-1.736l2.778-4.081l2.084-1.04l-0.086-1.135l-0.262-1.386l2.17-4.253
	l1.826-0.955l0.292-2.604l1.345-0.942l0.651-3.216l-1.019-3.047l3.07-1.805l0.418-1.534l0.938-3.243L450.354,263.576z"/>
<path id="Oklahoma" fill="#FFFFFF" d="M286.564,246.573l-8.119-0.347l-4.886-0.369l0.196,0.151l-0.535,7.917l16.687,1.069
	l24.352,0.991l-1.774,18.55l-0.347,13.547l0.174,1.215l3.3,2.779l1.563,0.869l0.522-0.174l0.521-1.562l1.042,1.389h1.564v-1.042
	l2.083,1.042l-0.346,2.953l3.125,0.174l1.911,0.869l3.125,0.521l1.911,1.391l1.737-1.564l2.605,0.522l1.91,2.604h0.694v1.737
	l1.737,0.521l1.737-1.737l1.389,0.522h1.911l0.694,1.91l3.647,1.39l1.042-0.521l1.39-3.125h0.869l0.869,1.562l3.126,0.521
	l2.779,1.042l2.258,0.695l1.389-0.695l0.521-1.911h3.3l1.563,0.694l2.085-1.562h0.868l0.522,1.216h3.126l1.215-1.562l1.39,0.347
	l1.563,1.91l2.432,1.39l2.431,0.694l1.475,0.851l-0.296-28.273l-1.042-8.337l-0.123-6.74l-1.093-4.967l-0.591-5.454l-0.051-2.899
	l-9.22,0.243l-35.256-0.347l-34.213-1.563L286.564,246.573z"/>
<path id="Kansas" fill="#FFFFFF" d="M383.83,248.518l-9.585,0.155l-35.013-0.348l-33.848-1.562l-18.71-0.955l3.147-49.166
	l16.586,0.608l30.74,1.042l33.52,0.347h3.872l2.467,2.45l2.103,0.174l0.676,0.817v1.526l-1.389,1.216l-0.347,1.98l1.686,2.727
	l1.91,2.38l1.91,1.511l0.799,8.492L383.83,248.518z"/>
<path id="Louisiana" fill="#FFFFFF" d="M458.9,360.845l-0.782-1.987l-0.869-2.35l-2.519-2.689l0.696-5.128l-0.09-0.867l-0.958,0.26
	l-6.252,0.693l-19.013,0.349l-0.521-1.819l0.694-6.424l2.519-4.516l3.822-6.603l-0.435-1.822l0.954-0.518l0.349-1.482l-1.736-1.562
	l-0.084-1.476l-1.391-3.302l-0.346-4.513l-7.388,0.086l-14.589,0.694l-16.868,0.022l0.022,7.272l0.521,7.12l0.521,2.953l1.911,3.126
	l0.694,3.82l3.3,4.168l0.174,2.432l0.522,0.521l-0.522,6.426l-2.258,3.82l1.216,1.563l-0.521,1.91l-0.521,5.558l-1.042,2.432
	l0.093,2.747l3.561-1.155l6.14-0.245l7.859,2.702l4.913,0.859l2.824-1.105l2.456,0.86l2.457,0.737l0.614-1.598l-2.457-0.859
	l-1.965,0.368l-2.088-1.229c0,0,0.123-0.981,0.615-1.105c0.49-0.122,2.333-0.736,2.333-0.736l1.35,1.105l1.351-0.737l2.456,0.491
	l1.104,1.842l0.247,1.72l3.438,0.245l1.35,1.352l-0.614,1.228l-0.982,0.614l1.228,1.228l6.385,2.702l2.703-0.982l0.736-1.842
	l1.965-0.492l1.351-1.104l0.982,0.736l0.614,2.211l-1.72,0.613l0.491,0.491l2.58-0.982l1.719-2.579l0.615-0.369l-1.598-0.244
	l0.615-1.228l-0.123-1.105l1.596-0.369l0.861-0.982l0.49,0.614c0,0-0.123,2.333,0.491,2.333c0.614,0,3.192,0.491,3.192,0.491
	l3.07,1.473l0.737,1.105h2.211l0.86,0.738l1.719-2.334v-1.105h-0.982l-2.58-2.087l-4.42-0.614l-2.457-1.72l0.86-2.088l1.721,0.245
	l0.122-0.49l-1.351-0.738v-0.367h2.456l1.35-2.333l-0.982-1.473l-0.246-2.088l-1.105,0.121l-1.473,1.598l-0.491,1.965l-2.333-0.491
	l-0.738-1.35l1.351-1.475l1.536-1.349L458.9,360.845z"/>
<path id="Virginia" fill="#FFFFFF" d="M631.119,206.065l-0.11-1.479l4.902-1.937l-0.585,2.444l-2.219,2.871l-0.317,3.484
	l0.351,2.576l-1.389,3.781l-1.644,1.456l-1.117-3.525l0.338-4.14l1.206-3.178L631.119,206.065z M632.852,227.563l-44.193,9.554
	l-28.432,4.009l-5.074-0.285l-1.964,1.464l-5.574,0.168l-6.368,0.743l-6.781,0.723l6.441-3.76l-0.01-1.575l1.155-1.63l8.017-8.738
	l2.999,3.402l2.874,0.731l1.932-0.867l1.699-0.996l1.927,1.021l2.974-1.085l1.426-3.462l1.977,0.411l2.168-1.619l1.366,0.375
	l2.148-2.792l0.266-1.583l-0.732-0.969l0.762-1.418l4.006-9.326l0.468-4.356l0.934-0.397l1.655,1.856l2.99-0.229l1.466-5.753
	l2.123-0.426l0.797-2.082l1.96-1.783l0.963-1.779l1.143-2.547l0.064-3.85l7.462,2.904c0.517,0.258,0.498-3.634,0.498-3.634
	l3.077,1.046l-0.352,1.997l6.196,2.233l0.982,1.363l-0.659,2.797l-0.96,1.007l-0.385,1.326l0.375,1.826l1.488,0.971l2.977,1.098
	l2.24,0.735l3.688,0.716l1.636,1.586l2.423,0.306l0.659,0.912l-0.334,3.562l1.044,0.838l-0.363,1.467l0.933,0.6l-0.168,1.052
	l-2.047-0.072l0.068,1.228l1.732,1.172l0.092,1.073l1.348,1.357l0.373,1.917l-1.94,1.049l1.194,1.135l4.407-1.281L632.852,227.563z"
	/>
</svg>
